<svg width="29" height="29" viewBox="0 0 29 29" fill="none" xmlns="http://www.w3.org/2000/svg">
<path fill-rule="evenodd" clip-rule="evenodd" d="M14.4 28.8C22.3529 28.8 28.8 22.3529 28.8 14.4C28.8 6.4471 22.3529 0 14.4 0C6.4471 0 0 6.4471 0 14.4C0 22.3529 6.4471 28.8 14.4 28.8ZM7.1424 10.5616C7.1424 10.0093 7.59012 9.5616 8.1424 9.5616H20.4848C21.0371 9.5616 21.4848 10.0093 21.4848 10.5616V18.4688C21.4848 19.0211 21.0371 19.4688 20.4848 19.4688H8.1424C7.59011 19.4688 7.1424 19.0211 7.1424 18.4688V10.5616ZM19.9872 11.6065C20.736 11.1457 20.3616 10.5697 19.6416 11.0593L14.6305 14.2849C14.4844 14.3713 14.3968 14.3797 14.2273 14.2849L9.07207 11.0593C8.52297 10.6179 8.03769 11.1112 8.64004 11.5201L14.1697 14.9761C14.3736 15.0951 14.4869 15.0924 14.6881 14.9761L19.9872 11.6065Z" fill="#1C6EF1"/>
</svg>
