<svg width="29" height="29" viewBox="0 0 29 29" fill="none" xmlns="http://www.w3.org/2000/svg">
<path fill-rule="evenodd" clip-rule="evenodd" d="M15.7027 28.7999C23.0452 28.1402 28.8 21.9581 28.8 14.4291C28.8 6.46012 22.3529 0 14.4 0C6.4471 0 0 6.46012 0 14.4291C0 21.5351 5.12644 27.4414 11.8757 28.6372V18.6256H8.26135V14.4291H11.8757C11.8757 14.4291 11.8467 13.9454 11.9044 11.2099C11.962 8.47438 13.1952 6.4385 15.2606 5.94986C17.3259 5.46122 18.3999 5.61072 20.5387 5.94986L20.5386 9.51402C20.5386 9.51402 19.2658 9.4832 18.2438 9.54275C17.2217 9.6023 16.5226 10.3188 16.4079 11.3823C16.2932 12.4458 16.4079 14.4291 16.4079 14.4291L20.3952 14.4291L19.7641 18.6256H16.4079V28.7145C16.1588 28.7463 15.9256 28.775 15.7027 28.7999Z" fill="#1877F2"/>
</svg>
