<svg width="37" height="37" viewBox="0 0 37 37" fill="none" xmlns="http://www.w3.org/2000/svg">
<path d="M3.01865 22.5514C3.08652 25.902 5.93678 30.1768 9.39783 31.7744C6.50038 34.0261 12.5223 35.3916 11.9904 32.3481C13.5382 32.656 14.3417 32.5964 15.6413 32.0767C15.7091 32.1451 15.7769 32.2121 15.8449 32.2779C18.3751 34.7253 21.0264 35.3159 24.4429 34.6551C24.1923 37.8765 30.0185 35.26 27.3817 33.2531C30.5713 32.2124 34.0323 27.2591 33.6251 24.185C37.0758 23.4958 36.8833 20.9184 33.8575 19.9951C33.9831 18.9663 33.939 18.2044 33.5624 17.0132C33.4539 16.6699 33.3178 16.2909 33.1501 15.8597C31.2025 11.2639 26.6613 6.81883 22.8023 7.25551C22.1056 8.46363 21.6915 8.56789 21.3852 7.71724C21.3315 7.53205 21.3097 7.40365 21.2901 7.18741C17.6499 3.07596 6.90919 7.06487 3.4937 17.0154C3.48217 17.049 3.47072 17.0827 3.45936 17.1164C3.29134 17.626 3.1756 18.2062 3.14353 18.3702C3.10932 18.5452 3.02204 18.9162 3.01865 19.1166C0.83375 18.782 -0.136173 21.1799 3.01865 22.5514Z" fill="#E8E8E8"/>
<path d="M3.42587 17.2167C3.43695 17.1832 3.44811 17.1498 3.45936 17.1164M22.7591 7.26061C22.7735 7.25884 22.7879 7.25714 22.8023 7.25551M12.6553 19.6905C14.284 12.8741 17.4027 9.757 21.4067 7.78925C21.399 7.76418 21.3918 7.74027 21.3852 7.71724M3.62942 19.3202C3.35797 19.1845 3.23464 19.1497 3.01865 19.1166M3.42587 22.7129C3.28301 22.6612 3.14734 22.6073 3.01865 22.5514M9.73714 31.5338C9.61257 31.615 9.49969 31.6953 9.39783 31.7744M11.9088 32.0088C11.9446 32.1275 11.9716 32.2405 11.9904 32.3481M24.5314 34.1123C24.4846 34.3092 24.4557 34.4898 24.4429 34.6551M27.0423 33.0266C27.1683 33.101 27.2811 33.1766 27.3817 33.2531M33.3537 19.863C33.5295 19.9021 33.6974 19.9463 33.8575 19.9951M33.0822 24.2735C33.2723 24.249 33.4532 24.2193 33.6251 24.185M3.01865 22.5514C3.08652 25.902 5.93678 30.1768 9.39783 31.7744M3.01865 22.5514C-0.136173 21.1799 0.83375 18.782 3.01865 19.1166M9.39783 31.7744C6.50038 34.0261 12.5223 35.3916 11.9904 32.3481M11.9904 32.3481C13.5382 32.656 14.3417 32.5964 15.6413 32.0767C15.7091 32.1451 15.7769 32.2121 15.8449 32.2779C18.3751 34.7253 21.0264 35.3159 24.4429 34.6551M24.4429 34.6551C24.1923 37.8765 30.0185 35.26 27.3817 33.2531M27.3817 33.2531C30.5713 32.2124 34.0323 27.2591 33.6251 24.185M33.6251 24.185C37.0758 23.4958 36.8833 20.9184 33.8575 19.9951M33.8575 19.9951C33.9831 18.9663 33.939 18.2044 33.5624 17.0132C33.4539 16.6699 33.3178 16.2909 33.1501 15.8597C31.2025 11.2639 26.6613 6.81883 22.8023 7.25551M3.4937 17.0154C6.90919 7.06487 17.6499 3.07596 21.2901 7.18741C21.3097 7.40365 21.3315 7.53205 21.3852 7.71724M3.4937 17.0154C3.48217 17.049 3.47072 17.0827 3.45936 17.1164M3.4937 17.0154C3.48202 17.0487 3.47057 17.0824 3.45936 17.1164M3.01865 19.1166C3.02204 18.9162 3.10932 18.5452 3.14353 18.3702C3.1756 18.2062 3.29134 17.626 3.45936 17.1164M21.3852 7.71724C21.6915 8.56789 22.1056 8.46363 22.8023 7.25551" stroke="#3D3D3D" stroke-width="0.2" stroke-linecap="round" stroke-linejoin="round"/>
<path d="M3.44321 17.2169C10.9882 21.8844 28.4423 19.5788 33.0996 15.8599L33.5068 17.0134C25.5844 22.7193 8.45142 21.2528 15.2515 31.6019C11.001 26.6486 11.4511 22.0345 3.17175 18.3704L3.44321 17.2169Z" fill="url(#paint0_linear_655_2)"/>
<path d="M15.8622 32.2804C15.7265 32.2126 15.3249 31.7136 15.2515 31.6019M15.2515 31.6019C8.45142 21.2528 25.5844 22.7193 33.5068 17.0134L33.0996 15.8599C28.4423 19.5788 10.9882 21.8844 3.44321 17.2169L3.17175 18.3704C11.4511 22.0345 11.001 26.6486 15.2515 31.6019Z" stroke="#3D3D3D" stroke-width="0.2" stroke-linejoin="round"/>
<path d="M12.1976 11.3215C11.6965 11.5301 11.564 12.0897 11.8767 12.2332C12.469 12.3996 13.2352 11.8483 12.1976 11.3215Z" fill="#3E3E3E"/>
<path d="M12.5196 11.2461C11.7623 11.3043 11.505 12.0627 11.8767 12.2332M12.1124 12.2639C12.0164 12.2735 11.938 12.2614 11.8767 12.2332M11.8767 12.2332C12.469 12.3996 13.2352 11.8483 12.1976 11.3215C11.6965 11.5301 11.564 12.0897 11.8767 12.2332Z" stroke="#3E3E3E" stroke-width="0.2" stroke-linecap="round" stroke-linejoin="round"/>
<path d="M18.6373 11.9837C18.1927 12.3285 18.125 12.8079 18.6273 12.8668C18.9514 12.9027 19.2004 12.7649 19.2612 12.5815C19.3278 12.3808 19.1692 12.1255 18.6373 11.9837Z" fill="#3E3E3E"/>
<path d="M18.8309 11.8564C18.2202 12.1957 18.0592 12.8002 18.6273 12.8668M19.27 12.5486C19.2681 12.5555 19.2655 12.567 19.2612 12.5815M18.6273 12.8668C18.125 12.8079 18.1927 12.3285 18.6373 11.9837C19.1692 12.1255 19.3278 12.3808 19.2612 12.5815M18.6273 12.8668C18.9514 12.9027 19.2004 12.7649 19.2612 12.5815M18.6273 12.8668C19.123 12.9248 19.2318 12.6807 19.2612 12.5815" stroke="#3E3E3E" stroke-width="0.2" stroke-linecap="round" stroke-linejoin="round"/>
<path d="M21.2791 7.03848C21.6195 2.66092 23.4238 2.69829 23.3141 4.81961C23.0253 8.21229 21.4096 9.3455 21.2791 7.03848Z" fill="#E8E8E8"/>
<path d="M21.2739 7.10633C21.6132 2.49229 23.5645 2.69585 23.2931 5.07073M21.2791 7.03848C21.4096 9.3455 23.0253 8.21229 23.3141 4.81961C23.4238 2.69829 21.6195 2.66092 21.2791 7.03848Z" stroke="#3D3D3D" stroke-width="0.2" stroke-linecap="round" stroke-linejoin="round"/>
<path d="M25.2778 4.57727C26.9065 0.389318 30.164 4.39268 34.8465 1C34.4394 3.71414 33.625 4.25939 31.5212 4.93551C29.4175 5.61162 26.8307 5.53453 25.2778 4.57727Z" fill="#E8E8E8"/>
<path d="M23.2628 5.29863C24.0314 5.03805 24.6839 4.7401 25.2778 4.57727M32.7428 3.17131C29.6414 4.91248 30.278 3.20633 25.2778 4.57727M25.2778 4.57727C26.9065 0.389318 30.164 4.39268 34.8465 1C34.4394 3.71414 33.625 4.25939 31.5212 4.93551C29.4175 5.61162 26.8307 5.53453 25.2778 4.57727Z" stroke="#3D3D3D" stroke-width="0.2" stroke-linecap="round" stroke-linejoin="round"/>
<defs>
<linearGradient id="paint0_linear_655_2" x1="31.6607" y1="24.7196" x2="5" y2="31.5" gradientUnits="userSpaceOnUse">
<stop stop-color="#A781B9"/>
<stop offset="0.520833" stop-color="#DE6A96"/>
<stop offset="0.869792" stop-color="#CA8D6E"/>
</linearGradient>
</defs>
</svg>
