<svg width="29" height="29" viewBox="0 0 29 29" fill="none" xmlns="http://www.w3.org/2000/svg">
<path fill-rule="evenodd" clip-rule="evenodd" d="M14.4 28.8C22.3529 28.8 28.8 22.3529 28.8 14.4C28.8 6.4471 22.3529 0 14.4 0C6.4471 0 0 6.4471 0 14.4C0 22.3529 6.4471 28.8 14.4 28.8ZM8.8384 7.6608C6.62926 7.6608 4.8384 9.45166 4.8384 11.6608V17.1392C4.8384 19.3483 6.62926 21.1392 8.8384 21.1392H19.9616C22.1707 21.1392 23.9616 19.3483 23.9616 17.1392V11.6608C23.9616 9.45166 22.1707 7.6608 19.9616 7.6608H8.8384Z" fill="#FF0000"/>
<path d="M17.4528 14.3999L12.4416 17.2931L12.4416 11.5067L17.4528 14.3999Z" fill="#FF0000"/>
</svg>
